<mxfile host="app.diagrams.net" modified="2023-11-02T20:36:49.955Z" agent="Mozilla/5.0 (Windows NT 10.0; Win64; x64) AppleWebKit/537.36 (KHTML, like Gecko) Chrome/118.0.0.0 Safari/537.36 Edg/118.0.2088.76" etag="dV3XrojiRXIbQnw8Cw4X" version="22.0.8" type="github">
  <diagram name="Page-1" id="kLsMJ3DafqWDabyMfj5i">
    <mxGraphModel dx="618" dy="678" grid="1" gridSize="10" guides="1" tooltips="1" connect="1" arrows="1" fold="1" page="1" pageScale="1" pageWidth="850" pageHeight="1100" math="0" shadow="0">
      <root>
        <mxCell id="0" />
        <mxCell id="1" parent="0" />
        <mxCell id="XSP0BTpGzLowRfvcMn0L-1" value="&lt;font face=&quot;Courier New&quot;&gt;App&lt;br&gt;- main(args: String[]: void)&lt;/font&gt;" style="swimlane;fontStyle=0;align=center;verticalAlign=top;childLayout=stackLayout;horizontal=1;startSize=40;horizontalStack=0;resizeParent=1;resizeParentMax=0;resizeLast=0;collapsible=0;marginBottom=0;html=1;whiteSpace=wrap;" vertex="1" parent="1">
          <mxGeometry x="160" y="320" width="320" height="148" as="geometry" />
        </mxCell>
        <mxCell id="XSP0BTpGzLowRfvcMn0L-3" value="&lt;font face=&quot;Courier New&quot;&gt;Uses&lt;/font&gt;" style="text;html=1;strokeColor=none;fillColor=none;align=left;verticalAlign=middle;spacingLeft=4;spacingRight=4;overflow=hidden;rotatable=0;points=[[0,0.5],[1,0.5]];portConstraint=eastwest;whiteSpace=wrap;" vertex="1" parent="XSP0BTpGzLowRfvcMn0L-1">
          <mxGeometry y="40" width="320" height="20" as="geometry" />
        </mxCell>
        <mxCell id="XSP0BTpGzLowRfvcMn0L-6" value="" style="line;strokeWidth=1;fillColor=none;align=left;verticalAlign=middle;spacingTop=-1;spacingLeft=3;spacingRight=3;rotatable=0;labelPosition=right;points=[];portConstraint=eastwest;" vertex="1" parent="XSP0BTpGzLowRfvcMn0L-1">
          <mxGeometry y="60" width="320" height="8" as="geometry" />
        </mxCell>
        <mxCell id="XSP0BTpGzLowRfvcMn0L-8" value="&lt;font face=&quot;Courier New&quot;&gt;PizzaOrderFacade&lt;/font&gt;" style="text;html=1;strokeColor=none;fillColor=none;align=left;verticalAlign=middle;spacingLeft=4;spacingRight=4;overflow=hidden;rotatable=0;points=[[0,0.5],[1,0.5]];portConstraint=eastwest;whiteSpace=wrap;" vertex="1" parent="XSP0BTpGzLowRfvcMn0L-1">
          <mxGeometry y="68" width="320" height="20" as="geometry" />
        </mxCell>
        <mxCell id="XSP0BTpGzLowRfvcMn0L-9" value="&lt;font face=&quot;Courier New&quot;&gt;ClientDAO&lt;/font&gt;" style="text;html=1;strokeColor=none;fillColor=none;align=left;verticalAlign=middle;spacingLeft=4;spacingRight=4;overflow=hidden;rotatable=0;points=[[0,0.5],[1,0.5]];portConstraint=eastwest;whiteSpace=wrap;" vertex="1" parent="XSP0BTpGzLowRfvcMn0L-1">
          <mxGeometry y="88" width="320" height="20" as="geometry" />
        </mxCell>
        <mxCell id="XSP0BTpGzLowRfvcMn0L-10" value="&lt;font face=&quot;Courier New&quot;&gt;Client&lt;/font&gt;" style="text;html=1;strokeColor=none;fillColor=none;align=left;verticalAlign=middle;spacingLeft=4;spacingRight=4;overflow=hidden;rotatable=0;points=[[0,0.5],[1,0.5]];portConstraint=eastwest;whiteSpace=wrap;" vertex="1" parent="XSP0BTpGzLowRfvcMn0L-1">
          <mxGeometry y="108" width="320" height="20" as="geometry" />
        </mxCell>
        <mxCell id="XSP0BTpGzLowRfvcMn0L-17" value="&lt;font face=&quot;Courier New&quot;&gt;Scanner&lt;/font&gt;" style="text;html=1;strokeColor=none;fillColor=none;align=left;verticalAlign=middle;spacingLeft=4;spacingRight=4;overflow=hidden;rotatable=0;points=[[0,0.5],[1,0.5]];portConstraint=eastwest;whiteSpace=wrap;" vertex="1" parent="XSP0BTpGzLowRfvcMn0L-1">
          <mxGeometry y="128" width="320" height="20" as="geometry" />
        </mxCell>
      </root>
    </mxGraphModel>
  </diagram>
</mxfile>
